<?xml version="1.0" encoding="UTF-8"?><svg id="Layer_1" xmlns="http://www.w3.org/2000/svg" viewBox="0 0 502.77 677.83"><defs><style>.cls-1{fill:#661414;}.cls-2{fill:#a03333;}.cls-3,.cls-4,.cls-5{fill:#8e2828;}.cls-4{opacity:.33;}.cls-4,.cls-5{isolation:isolate;}.cls-5{opacity:.68;}</style></defs><g id="Layer_1-2"><g><rect class="cls-2" x="179.01" y="53.38" width="34.51" height="119.11" transform="translate(-16.92 36.62) rotate(-10.22)"/><path class="cls-4" d="m202.7,51.3l-33.96,6.13,4.44,24.61c3.4.95,6.98,1.47,10.68,1.47,8.7,0,16.75-2.82,23.28-7.6l-4.44-24.61Z"/><path class="cls-4" d="m189.87,174.64l33.96-6.13-13.22-73.31c-1.81.23-3.62.46-5.44.73-9.8,1.43-19.31,3.37-28.46,5.74l13.16,72.97Z"/><path class="cls-2" d="m441.58,583.36c-12.4-46.68-28.93-93.15-47.49-138.62H106.41c-21.07,51.62-39.53,104.53-52.28,157.56,51.19,36.79,113.96,58.46,181.81,58.46,78.78,0,150.73-29.22,205.63-77.4h.01Z"/><path class="cls-3" d="m404.25,470.31c-3.31-8.55-6.7-17.07-10.16-25.56H106.41c-8.05,19.73-15.71,39.65-22.83,59.69,26.74,11.57,57.06,15.67,87.88,10.11l207.75-37.47c8.67-1.57,17.02-3.87,25.04-6.77h0Z"/><path class="cls-5" d="m106.41,444.74c-21.07,51.62-39.53,104.53-52.28,157.56,9.53,6.84,19.46,13.16,29.74,18.91,86.55-96.01,220.94-157.44,220.94-157.44l-139.92-19.03h-58.49s0,0,0,0Z"/><path class="cls-5" d="m105.65,446.62c-20.75,51.02-38.92,103.29-51.52,155.68,29.47,21.18,62.78,37.34,98.68,47.24,7.78-81.88,68.8-187.02,68.53-190.52,0,0-60.25-6.66-115.69-12.4h0Z"/><path class="cls-2" d="m205.17,106.88c129.08-23.27,252.77,62.63,276.05,191.71h0c13.78,76.43-37.08,149.66-113.51,163.44l-190.79,34.4c-76.43,13.78-149.66-37.08-163.44-113.51h0C-9.8,253.84,76.1,130.15,205.18,106.88h0Z"/><circle class="cls-1" cx="370.19" cy="317.04" r="35.96"/><circle class="cls-4" cx="431.98" cy="376.27" r="16.47"/><circle class="cls-4" cx="87.59" cy="441.59" r="16.47" transform="translate(-162.32 67.13) rotate(-22.5)"/><circle class="cls-1" cx="126.52" cy="357.81" r="35.96"/><path class="cls-1" d="m257.38,382.57c26.26-2.39,51.18,12.16,62.02,36.2,2.06,4.57.02,9.94-4.53,12-4.57,2.06-9.93.02-12-4.53-7.66-16.99-25.28-27.27-43.85-25.58-18.56,1.68-34.04,14.98-38.52,33.07-1.2,4.86-6.12,7.83-10.98,6.63s-7.83-6.12-6.63-10.98c6.33-25.59,28.23-44.39,54.48-46.77h0Z"/><path class="cls-1" d="m391.91,619.02c-13.95-16.22-34.61-26.5-57.68-26.5-39.09,0-71.27,29.48-75.57,67.41,48.29-3.48,93.53-17.94,133.24-40.91h0Z"/><circle class="cls-2" cx="183.85" cy="44.02" r="34.2"/></g></g></svg>