<?xml version="1.0" encoding="UTF-8"?><svg id="Layer_1" xmlns="http://www.w3.org/2000/svg" viewBox="0 0 846.11 846.11"><defs><style>.cls-1{fill:#661414;}.cls-2{fill:#a03333;}.cls-3,.cls-4,.cls-5{fill:#8e2828;}.cls-4{opacity:.33;}.cls-4,.cls-5{isolation:isolate;}.cls-5{opacity:.68;}</style></defs><g id="Layer_1-2"><g><path class="cls-1" d="m443.54,123.33c-172.27,0-311.91,139.65-311.91,311.91s139.65,311.91,311.91,311.91,311.91-139.65,311.91-311.91S615.81,123.33,443.54,123.33Z"/><rect class="cls-2" x="423.66" y="182.08" width="119.11" height="34.51" transform="translate(201.31 639.52) rotate(-79.78)"/><path class="cls-4" d="m472.34,162.31c6.53,4.78,14.58,7.6,23.28,7.6,3.7,0,7.28-.52,10.68-1.47l4.44-24.61-33.96-6.13-4.44,24.61Z"/><path class="cls-4" d="m502.77,188.07c-9.15-2.37-18.66-4.31-28.46-5.74-1.82-.27-3.63-.5-5.44-.73l-13.22,73.31,33.96,6.13,13.16-72.97Z"/><path class="cls-2" d="m237.91,669.76c54.9,48.18,126.85,77.4,205.63,77.4,67.85,0,130.62-21.67,181.81-58.46-12.75-53.03-31.21-105.94-52.28-157.56h-287.68c-18.56,45.47-35.09,91.94-47.49,138.62h.01Z"/><path class="cls-3" d="m275.23,556.71c8.02,2.9,16.37,5.2,25.04,6.77l207.75,37.47c30.82,5.56,61.14,1.46,87.88-10.11-7.12-20.04-14.78-39.96-22.83-59.69h-287.68c-3.46,8.49-6.85,17.01-10.16,25.56h0Z"/><path class="cls-5" d="m573.08,531.14h-58.49l-139.92,19.03s134.39,61.43,220.94,157.44c10.28-5.75,20.21-12.07,29.74-18.91-12.75-53.03-31.21-105.94-52.28-157.56h0Z"/><path class="cls-5" d="m573.83,533.02c-55.44,5.74-115.69,12.4-115.69,12.4-.27,3.5,60.75,108.64,68.53,190.52,35.9-9.9,69.21-26.06,98.68-47.24-12.6-52.39-30.77-104.66-51.52-155.68h0Z"/><path class="cls-2" d="m474.3,193.28h0c129.08,23.27,214.99,146.97,191.71,276.05h0c-13.78,76.43-87.02,127.29-163.44,113.51l-190.79-34.4c-76.43-13.78-127.29-87.02-113.51-163.44h0c23.27-129.08,146.97-214.99,276.05-191.71h0Z"/><circle class="cls-1" cx="309.29" cy="403.44" r="35.96"/><circle class="cls-4" cx="247.5" cy="462.67" r="16.47"/><circle class="cls-4" cx="591.89" cy="527.99" r="16.47"/><circle class="cls-1" cx="552.96" cy="444.21" r="35.96"/><path class="cls-1" d="m422.11,468.99c26.25,2.38,48.14,21.18,54.48,46.77,1.2,4.86-1.76,9.78-6.63,10.98s-9.78-1.76-10.98-6.63c-4.47-18.09-19.96-31.38-38.52-33.07-18.57-1.69-36.19,8.59-43.85,25.58-2.07,4.55-7.43,6.59-12,4.53-4.56-2.06-6.59-7.43-4.53-12,10.84-24.03,35.76-38.58,62.02-36.2h0Z"/><path class="cls-1" d="m287.58,705.42c39.71,22.97,84.95,37.43,133.24,40.91-4.3-37.93-36.48-67.41-75.57-67.41-23.07,0-43.73,10.28-57.68,26.5h0Z"/><circle class="cls-2" cx="495.63" cy="130.42" r="34.2"/><path class="cls-2" d="m267.81,576.36c-37.48-5.03-105.12-21.93-124.47-78.65l-66.52,22.69c18.36,53.83,62.5,93.16,127.65,113.73,14.4,4.55,28.31,7.68,40.69,9.84,6.74-22.65,14.37-45.22,22.64-67.61h.01Z"/><path class="cls-4" d="m267.81,576.35c-6.69-.9-14.33-2.17-22.49-3.98-8,22.22-15.39,44.59-22.01,67.02,7.64,1.87,14.98,3.37,21.86,4.57,6.74-22.65,14.37-45.21,22.64-67.61h0Z"/><path class="cls-4" d="m143.34,497.71l-66.52,22.69c8.41,24.67,22.25,46.28,41.03,64.44,10.2-2.64,20.49-9.3,31.17-19.98,8.74-8.74,14.77-19.14,18.13-30.19-10.32-9.91-18.74-22.06-23.82-36.96h0Z"/><path class="cls-2" d="m141.55,555.72c23.79-23.79,23.79-62.36,0-86.15-23.79-23.79-62.36-23.79-86.15,0s-6.69,62.36,17.1,86.15c23.79,23.79,45.26,23.79,69.05,0Z"/><path class="cls-2" d="m713.7,524.92c-17.64,51.71-75.43,70.32-113.9,77.02,7.72,22.43,14.71,45,20.73,67.61,10.07-2.03,20.91-4.69,32.03-8.21,65.15-20.57,109.29-59.9,127.65-113.73l-66.52-22.69h.01Z"/><path class="cls-4" d="m620.52,669.54c6.92-1.39,14.19-3.09,21.68-5.15-6.01-22.49-12.89-44.93-20.43-67.26-7.71,2.06-15.15,3.62-21.98,4.81,7.72,22.43,14.71,44.99,20.73,67.61h0Z"/><path class="cls-4" d="m780.21,547.6l-66.52-22.69c-4.6,13.5-11.95,24.74-20.97,34.1.02.03.04.06.06.09,19.42,30.15,48.68,26.32,78.75,9.14,3.33-6.62,6.24-13.5,8.68-20.65h0Z"/><path class="cls-2" d="m741.8,460.29c33.49-3.25,63.26,21.26,66.51,54.75,3.25,33.49-22.94,45.95-56.43,49.2s-61.58-3.95-64.83-37.44,21.26-63.26,54.75-66.51h0Z"/></g></g></svg>