<?xml version="1.0" encoding="utf-8"?>
<!-- Generator: Adobe Illustrator 27.2.0, SVG Export Plug-In . SVG Version: 6.00 Build 0)  -->
<svg version="1.1" id="Layer_1" xmlns="http://www.w3.org/2000/svg" xmlns:xlink="http://www.w3.org/1999/xlink" x="0px" y="0px"
	 viewBox="0 0 1379.3 675.1" style="enable-background:new 0 0 1379.3 675.1;" xml:space="preserve">
<path fill="#ffffff" d="M1071.2,427.6c-2.8-29.2-25.8-51.6-53.9-54.7c0.7-8.3,1-16.7,1-25.1c0-142.5-95.5-262.6-226-299.9c0.2-1.6,0.4-3.2,0.4-4.9
	c0-18.9-15.3-34.2-34.2-34.2c-16.7,0-30.5,11.9-33.6,27.7c-6.1-0.4-12.3-0.6-18.5-0.6c-172.3,0-311.9,139.6-311.9,311.9
	c0,9.1,0.4,18.2,1.2,27.1c-23.7-16.2-56.4-13.8-77.4,7.2c-23.8,23.8-6.7,62.4,17.1,86.2c12,12,23.3,17.9,34.7,17.8
	c3.3,3.9,6.9,7.7,10.6,11.3c0,0,0,0,0,0h0c21.9,21.1,50.4,37.6,85,48.7c10.7,13,22.5,25.1,35.1,36.2c0,0,0,0,0,0h0
	c0.1,0.1,0.2,0.2,0.4,0.3c1.2,1.1,2.5,2.1,3.7,3.2c0.6,0.5,1.1,1,1.7,1.5c1.2,1,2.4,2,3.6,3c0.6,0.5,1.3,1,1.9,1.5
	c1.2,1,2.4,1.9,3.6,2.8c0.7,0.5,1.3,1,2,1.6c1.2,0.9,2.4,1.8,3.6,2.7c0.7,0.5,1.4,1,2.1,1.5c1.2,0.9,2.4,1.7,3.6,2.6
	c0.7,0.5,1.5,1,2.2,1.5c1.2,0.8,2.4,1.7,3.7,2.5c0.7,0.5,1.5,1,2.2,1.5c1.2,0.8,2.5,1.6,3.8,2.5c0.7,0.4,1.4,0.9,2.1,1.3
	c3.1,1.9,6.2,3.8,9.4,5.7c0,0,0,0,0,0h0c0.1,0.1,0.2,0.1,0.3,0.2c0.4,0.2,0.8,0.5,1.2,0.7c1.4,0.8,2.9,1.6,4.3,2.4
	c0.3,0.2,0.6,0.3,0.9,0.5c0.3,0.1,0.5,0.3,0.8,0.4c1.5,0.8,3,1.6,4.6,2.4c0.4,0.2,0.7,0.4,1.1,0.6c0.5,0.2,0.9,0.5,1.4,0.7
	c1.2,0.6,2.4,1.2,3.5,1.8c0.3,0.1,0.6,0.3,0.8,0.4c0.3,0.2,0.7,0.3,1,0.5c0.5,0.3,1.1,0.5,1.6,0.8c0.8,0.4,1.7,0.8,2.5,1.2
	c0.6,0.3,1.1,0.5,1.7,0.8c0.4,0.2,0.9,0.4,1.3,0.6c0.5,0.2,1,0.4,1.5,0.7c0.8,0.3,1.5,0.7,2.3,1c0.5,0.2,1.1,0.5,1.6,0.7
	c0.4,0.2,0.7,0.3,1.1,0.5c0.5,0.2,1,0.4,1.5,0.6c0.4,0.2,0.9,0.4,1.3,0.5c0.7,0.3,1.4,0.6,2.1,0.8c0.7,0.3,1.4,0.5,2,0.8
	c0.6,0.2,1.2,0.5,1.8,0.7c0.3,0.1,0.6,0.3,1,0.4c0.8,0.3,1.6,0.6,2.4,0.9c0.7,0.3,1.4,0.5,2.2,0.8c0.6,0.2,1.1,0.4,1.7,0.6
	c1,0.4,2,0.7,3,1.1c0.9,0.3,1.8,0.7,2.8,1c0.4,0.1,0.7,0.3,1.1,0.4c0.8,0.3,1.5,0.5,2.3,0.8c1,0.3,2.1,0.7,3.1,1
	c0.1,0,0.2,0.1,0.3,0.1c0.4,0.1,0.8,0.3,1.3,0.4c0.9,0.3,1.9,0.6,2.9,0.9c0.8,0.2,1.6,0.5,2.4,0.7c1.8,0.5,3.5,1,5.3,1.5
	c0.7,0.2,1.5,0.4,2.2,0.6c1.2,0.3,2.3,0.6,3.5,0.9c0.6,0.2,1.3,0.3,1.9,0.5c1.3,0.3,2.5,0.6,3.8,0.9c0.4,0.1,0.7,0.2,1.1,0.2
	c0.5,0.1,0.9,0.2,1.4,0.3c0.5,0.1,1,0.2,1.5,0.3c1.1,0.2,2.2,0.5,3.3,0.7c0.5,0.1,1.1,0.2,1.6,0.3c1.9,0.4,3.9,0.8,5.9,1.1
	c0.5,0.1,1,0.2,1.5,0.3c0.3,0.1,0.7,0.1,1,0.2c1.7,0.3,3.3,0.6,5,0.8c0.6,0.1,1.3,0.2,1.9,0.3c1.8,0.3,3.6,0.5,5.4,0.8
	c0.2,0,0.4,0.1,0.6,0.1c0.5,0.1,1.1,0.1,1.6,0.2c2,0.2,3.9,0.5,5.9,0.7c0.6,0.1,1.1,0.1,1.7,0.2c1.3,0.1,2.6,0.3,3.9,0.4
	c0.2,0,0.4,0,0.5,0c0.6,0.1,1.2,0.1,1.8,0.1c0.5,0,0.9,0.1,1.4,0.1c2.3,0.2,4.7,0.3,7,0.4c0.2,0,0.5,0,0.7,0
	c5.3,0.3,10.6,0.4,15.9,0.4c2.6,0,5.3,0,7.9-0.1c0.1,0,0.3,0,0.4,0c2.4-0.1,4.8-0.2,7.2-0.3c0.3,0,0.6,0,0.9,0
	c7.7-0.4,15.4-1.1,23-2c0.3,0,0.5-0.1,0.8-0.1c2.3-0.3,4.5-0.6,6.8-0.9c0.3,0,0.6-0.1,0.9-0.1c5-0.8,10-1.7,15-2.7c0,0,0,0,0,0
	c2.4-0.5,4.7-1,7-1.5c0.4-0.1,0.8-0.2,1.2-0.3c2.1-0.5,4.1-1,6.2-1.5c0.4-0.1,0.7-0.2,1.1-0.3c4.8-1.2,9.5-2.6,14.1-4
	c0.4-0.1,0.7-0.2,1.1-0.3c1.9-0.6,3.8-1.2,5.7-1.8c0.6-0.2,1.1-0.4,1.7-0.6c1.8-0.6,3.6-1.3,5.4-1.9c0.5-0.2,0.9-0.3,1.4-0.5
	c2.2-0.8,4.5-1.7,6.7-2.6c0.1,0,0.1,0,0.2-0.1c0.4-0.2,0.8-0.3,1.2-0.5c0.3-0.1,0.5-0.2,0.8-0.3c1.4-0.6,2.8-1.1,4.2-1.7
	c0.5-0.2,0.9-0.4,1.4-0.6c0.3-0.1,0.5-0.2,0.8-0.4c1.4-0.6,2.8-1.2,4.2-1.8c0.7-0.3,1.4-0.6,2.1-1c1.5-0.7,3-1.4,4.5-2.1
	c0.6-0.3,1.2-0.6,1.8-0.8c2-1,4-2,6-3c0.7-0.3,1.3-0.7,2-1c1.2-0.6,2.3-1.2,3.4-1.8c0.2-0.1,0.4-0.2,0.6-0.3c0,0,0,0,0,0
	c0.8-0.5,1.7-0.9,2.5-1.4c0.8-0.5,1.7-0.9,2.5-1.4c0.4-0.2,0.8-0.5,1.3-0.7c0.8-0.4,1.6-0.9,2.3-1.3c0.7-0.4,1.3-0.8,2-1.2
	c0.4-0.3,0.9-0.5,1.3-0.8c0.3-0.2,0.5-0.3,0.8-0.5c0.8-0.5,1.6-0.9,2.4-1.4c0.4-0.2,0.7-0.5,1.1-0.7c0.7-0.4,1.4-0.8,2.1-1.3
	c0.5-0.3,0.9-0.6,1.4-0.9c0.1,0,0.1-0.1,0.2-0.1c0,0,0,0,0,0c0.8-0.5,1.5-1,2.3-1.5c0.5-0.3,1.1-0.7,1.6-1c0.6-0.4,1.2-0.8,1.8-1.2
	c0.9-0.6,1.7-1.2,2.6-1.8c0.3-0.2,0.6-0.4,1-0.7c0.7-0.5,1.3-0.9,2-1.4c0.9-0.6,1.8-1.2,2.7-1.9c0.2-0.1,0.4-0.3,0.6-0.4
	c0,0,0,0,0,0c0,0,0,0,0,0l0,0l0,0c0,0,0,0,0,0c12.8-9.2,24.9-19.4,36.1-30.4c55.4-19.5,94.4-53.3,114-98.5
	C1059.6,465.9,1073.7,452.6,1071.2,427.6z M977.1,347.8c0,12.4-0.9,24.6-2.5,36.5c-16.8,12.3-26.8,32.8-24.6,55
	c0.6,6.5,2.2,12,4.6,16.7c-4.4,10.1-9.4,19.9-15,29.3c-17.1,12-37.1,19.7-55.4,24.5c-0.3,0.1-0.6,0.2-0.9,0.2
	c-0.9,0.2-1.9,0.5-2.8,0.7c-0.2,0.1-0.4,0.1-0.7,0.2c-0.5,0.1-1.1,0.3-1.6,0.4c-0.2,0.1-0.5,0.1-0.7,0.2c-0.9,0.2-1.8,0.4-2.7,0.6
	c-0.3,0.1-0.6,0.1-0.9,0.2c-0.4,0.1-0.9,0.2-1.3,0.3c-0.4,0.1-0.8,0.2-1.2,0.3c-0.4,0.1-0.7,0.2-1.1,0.2c-0.7,0.1-1.5,0.3-2.2,0.4
	c-0.2,0-0.4,0.1-0.6,0.1c-0.6,0.1-1.2,0.2-1.8,0.3c-0.2,0-0.4,0.1-0.6,0.1c-0.8,0.1-1.5,0.3-2.3,0.4v0h0c5,14.5,9.7,29.1,14,43.6
	c0,0,0,0,0,0c-0.6-1.9-1.1-3.7-1.7-5.6c0-0.1-0.1-0.2-0.1-0.4c-1-3.2-1.9-6.3-2.9-9.5c0-0.1-0.1-0.2-0.1-0.3c-1-3.2-2-6.3-3-9.5
	c0-0.1-0.1-0.2-0.1-0.3c-1-3.2-2.1-6.3-3.1-9.4c0-0.1-0.1-0.2-0.1-0.3c-1.1-3.2-2.1-6.3-3.2-9.5c0-0.1-0.1-0.2-0.1-0.2
	c-1.1-3.2-2.2-6.4-3.3-9.5c0-0.1,0-0.1-0.1-0.2c-1.1-3.2-2.3-6.4-3.4-9.5c0-0.1,0-0.1-0.1-0.2c-1.2-3.2-2.3-6.4-3.5-9.6
	c0,0,0-0.1,0-0.1c0-0.1-0.1-0.3-0.1-0.4c39.1-18.9,69-55.7,77.3-101.7c21.7-120.1-51.1-235.5-165.3-269.7l5-27.8
	C888.1,112.4,977.1,219.7,977.1,347.8z M729.2,383.6c2.5-4.4,8-5.9,12.3-3.5s5.9,8,3.5,12.4l0,0c-12.9,23-39,35.3-65,30.6
	s-46.1-25.3-50.2-51.4c-0.8-5,2.6-9.6,7.6-10.4c5-0.8,9.6,2.6,10.4,7.6c2.9,18.4,17.1,33,35.5,36.3
	C701.6,408.5,720,399.8,729.2,383.6z M851.3,363.1c-3.5,19.5-22.2,32.5-41.8,29c-19.5-3.5-32.5-22.2-29-41.8
	c3.5-19.5,22.2-32.5,41.8-29C841.8,324.9,854.8,343.6,851.3,363.1z M607.6,322.4c-3.5,19.5-22.2,32.5-41.8,29
	c-19.5-3.5-32.5-22.2-29-41.8c3.5-19.5,22.2-32.5,41.8-29C598.1,284.1,611.1,302.8,607.6,322.4z M706.5,77.2
	c9.5,0,18.9,0.5,28.1,1.5l-2.8,15.5c0,0,0,0,0,0l-1.9,10.5C603.4,85.8,484,170.8,461.2,297.5c-11.9,66,24.4,129.6,83.7,154.6
	c-4.9,12.2-9.6,24.4-14.2,36.7c-0.8-0.1-1.6-0.2-2.3-0.3c-0.1,0-0.3,0-0.4-0.1c-0.8-0.1-1.5-0.2-2.3-0.3c-0.1,0-0.1,0-0.2,0
	c-0.8-0.1-1.7-0.3-2.5-0.4c-0.2,0-0.4-0.1-0.5-0.1c-0.6-0.1-1.3-0.2-1.9-0.3c-0.3,0-0.5-0.1-0.8-0.1c-0.8-0.1-1.5-0.3-2.3-0.4
	c-0.4-0.1-0.7-0.1-1.1-0.2c-0.4-0.1-0.9-0.2-1.4-0.3c-0.5-0.1-0.9-0.2-1.4-0.3c-0.3-0.1-0.7-0.1-1-0.2c-1-0.2-2-0.4-3-0.6
	c-0.2,0-0.4-0.1-0.6-0.1c-13.8-3-29.1-7.6-43.7-14.4c-18.8-36.9-29.5-78.7-29.5-122.9C435.9,198.3,557,77.2,706.5,77.2z"/>
</svg>
