<svg class="wpcb-slide-logo" id="Layer_1" data-name="Layer 1" xmlns="http://www.w3.org/2000/svg" viewBox="0 0 214.98 82.23"><defs><style>.cls-1{fill:#e88b39;}.cls-2{fill:#fff;}</style></defs><path id="Path_1" data-name="Path 1" class="cls-1" d="M103.49,70.4l.38.29a16.92,16.92,0,0,0,10.25,3.42A17.1,17.1,0,0,0,131.2,57V13.79a6.45,6.45,0,1,0-12.9,0V56.91a4.24,4.24,0,0,1-3.9,4.3,4.18,4.18,0,0,1-3.14-1.12A4.24,4.24,0,0,1,109.93,57V13.79A6.45,6.45,0,1,0,97,13.28a4.34,4.34,0,0,0,0,.51V56.91a4.26,4.26,0,0,1-3.91,4.3A4.16,4.16,0,0,1,90,60.09,4.24,4.24,0,0,1,88.67,57V13.79a6.45,6.45,0,0,0-12.9,0V57A17.1,17.1,0,0,0,92.85,74.11a16.92,16.92,0,0,0,10.25-3.42Z"></path><path id="Path_2" data-name="Path 2" class="cls-1" d="M187.27,70.4l.38.29a16.92,16.92,0,0,0,10.25,3.42A17.11,17.11,0,0,0,215,57h0V24.42a17.08,17.08,0,0,0-34.16,0V57a4.19,4.19,0,0,1-8.37,0V13.79a6.45,6.45,0,1,0-12.9,0h0V57a17.1,17.1,0,0,0,17.08,17.08,16.92,16.92,0,0,0,10.25-3.42Zm10.63-9.19A4.2,4.2,0,0,1,193.71,57V24.42a4.19,4.19,0,0,1,8.37,0V57a4.19,4.19,0,0,1-4.18,4.19Z"></path><path id="Path_3" data-name="Path 3" class="cls-2" d="M34,75.53h0M7.56,62.75V57.4a3.78,3.78,0,0,1,3.78-3.78h0a3.78,3.78,0,0,1,3.78,3.78h0V60h7.56a3.78,3.78,0,0,1,3.78-3.78h0C30,56.18,30.24,60,30.24,60H37.8V57.4a3.78,3.78,0,0,1,3.78-3.78h0a3.78,3.78,0,0,1,3.78,3.78h0v5.21l7.55-.08a3.78,3.78,0,0,1,3.78-3.78h0a3.79,3.79,0,0,1,3.77,3.78V64L68,63.78h0V40.73a34,34,0,0,0-34-34h-.45C14.87,7,0,22.54,0,41.23V62.94m22.06-31.4a3.78,3.78,0,0,1-3.78-3.78h0A3.78,3.78,0,0,1,22.06,24h0a3.78,3.78,0,0,1,3.78,3.78h0a3.78,3.78,0,0,1-3.78,3.78h0ZM41.9,40.09a9.71,9.71,0,0,1-15.75,0A2.36,2.36,0,0,1,30,37.37a5,5,0,0,0,7,1.13,5,5,0,0,0,1.13-1.13,2.34,2.34,0,1,1,3.82,2.72ZM46.13,31a3.78,3.78,0,0,1-3.78-3.78h0a3.78,3.78,0,0,1,3.78-3.78h0a3.78,3.78,0,0,1,3.78,3.78h0A3.78,3.78,0,0,1,46.13,31Z"></path><path id="Path_4" data-name="Path 4" class="cls-1" d="M145.38,27.3a6.45,6.45,0,0,0-6.45,6.45v33a6.45,6.45,0,1,0,12.89.51,4.34,4.34,0,0,0,0-.51v-33a6.44,6.44,0,0,0-6.43-6.45Z"></path><circle id="Ellipse_1" data-name="Ellipse 1" class="cls-2" cx="145.38" cy="13.78" r="6.45"></circle><path class="cls-2 jelly-foot" d="M30.24,67.8a3.78,3.78,0,1,0,7.56,0h0V51.14H30.24Z" style="animation-delay:0.25s"></path><path class="cls-2 jelly-foot" d="M45.37,65.85a3.78,3.78,0,0,0,7.56,0V49.18H45.37Z" style="animation-delay:0.10s"></path><path class="cls-2 jelly-foot" d="M60.48,70.33a3.78,3.78,0,1,0,7.56,0V53.67H60.48Z" style="animation-delay:0.8s"></path><path class="cls-2 jelly-foot" d="M15.12,65a3.78,3.78,0,0,0,7.56,0V48.34H15.12Z" style="animation-delay:0.18s"></path><path class="cls-2 jelly-foot" d="M0,69.8a3.78,3.78,0,0,0,7.56,0V53.14H0Z"></path></svg>